<?xml version="1.0" standalone="no"?>
<!DOCTYPE svg PUBLIC "-//W3C//DTD SVG 20010904//EN"
 "http://www.w3.org/TR/2001/REC-SVG-20010904/DTD/svg10.dtd">
<svg version="1.0" xmlns="http://www.w3.org/2000/svg"
 width="312.000000pt" height="208.000000pt" viewBox="0 0 312.000000 208.000000"
 preserveAspectRatio="xMidYMid meet">

<g transform="translate(0.000000,208.000000) scale(0.100000,-0.100000)"
fill="#000000" stroke="none">
<path d="M1240 1918 c-27 -15 -50 -52 -50 -84 0 -12 34 -137 75 -279 41 -141
75 -258 75 -261 0 -2 34 -41 75 -86 45 -49 90 -111 111 -153 33 -66 35 -73 29
-145 -8 -98 -26 -125 -86 -125 -38 0 -46 4 -66 34 -13 19 -23 49 -23 68 0 21
-11 50 -28 76 -41 60 -44 67 -34 67 5 0 26 -25 46 -55 26 -40 36 -65 36 -95 0
-74 73 -117 116 -69 16 17 19 37 19 108 0 82 -2 89 -38 148 -53 87 -131 169
-172 183 -57 19 -115 -5 -144 -58 -15 -28 -7 -44 71 -139 69 -85 86 -122 94
-202 9 -83 0 -109 -41 -127 -47 -19 -59 -18 -94 12 -20 17 -32 38 -36 62 -3
20 -12 49 -20 65 -8 15 -10 27 -4 27 12 0 39 -61 39 -88 0 -11 9 -31 21 -46
22 -28 64 -35 100 -16 57 31 -18 271 -111 355 -38 35 -143 -7 -156 -62 -4 -16
5 -60 24 -121 19 -59 38 -150 48 -231 19 -160 32 -205 77 -280 27 -44 37 -74
46 -146 7 -49 13 -91 14 -92 1 0 129 1 285 4 l282 6 0 80 c0 98 16 135 95 226
105 120 168 288 146 390 -11 52 -67 172 -103 224 -33 47 -58 50 -182 27 -150
-28 -148 -28 -141 -53 4 -12 18 -32 31 -44 21 -19 37 -23 92 -23 l68 0 26 -52
26 -53 -63 -65 c-54 -56 -67 -77 -89 -145 -25 -75 -26 -77 -21 -30 9 69 38
127 100 193 l53 57 -22 38 c-21 36 -22 37 -83 37 -51 0 -67 4 -91 25 -30 25
-60 81 -49 92 4 3 41 14 83 24 42 10 78 20 80 22 5 5 122 572 130 631 12 83
-33 136 -114 136 -61 0 -85 -35 -106 -152 -59 -328 -101 -449 -141 -407 -7 8
-50 131 -94 273 -45 145 -88 267 -98 277 -25 24 -82 32 -113 17z"/>
</g>
</svg>
